<mxfile host="app.diagrams.net" modified="2024-07-13T13:57:17.392Z" agent="Mozilla/5.0 (Macintosh; Intel Mac OS X 10_15_7) AppleWebKit/537.36 (KHTML, like Gecko) Chrome/126.0.0.0 Safari/537.36" version="22.1.16" etag="1w7ksZi8A0URjhfmTSsy" type="gitlab">
  <diagram name="Page-1" id="Q1t4fgUz69nGviqHRmmX">
    <mxGraphModel>
      <root>
        <mxCell id="0" />
        <mxCell id="1" parent="0" />
      </root>
    </mxGraphModel>
  </diagram>
</mxfile>
